<?xml version="1.0" encoding="utf-8"?>
<!DOCTYPE svg PUBLIC "-//W3C//DTD SVG 1.0//EN" "http://www.w3.org/TR/2001/REC-SVG-20010904/DTD/svg10.dtd">
<svg version="1.0" xmlns="http://www.w3.org/2000/svg" width="1176px" height="1252px" viewBox="0 0 1176 1252" preserveAspectRatio="xMidYMid meet">
 <g fill="#e5f4fe">
  <path d="M575.32 1153.71 c-22.76 -18.14 -37.34 -47.18 -41.85 -83.58 -2.25 -17.31 -0.95 -58.09 2.25 -75.40 5.33 -27.98 16.24 -55.01 28.10 -69.47 6.16 -7.47 6.64 -7.71 11.85 -7.71 l5.33 0 -0.24 56.31 c-0.12 45.88 -0.36 56.31 -1.66 56.31 -2.37 0 -8.77 5.69 -10.79 9.84 -4.03 7.59 1.19 18.02 10.79 21.69 5.10 1.90 5.57 1.90 10.08 -0.12 5.69 -2.61 8.77 -5.81 11.26 -11.62 1.78 -4.15 1.66 -4.86 -0.47 -9.72 -1.42 -3.32 -4.03 -6.28 -7.11 -8.42 l-4.86 -3.20 0.24 -60.58 0.36 -60.58 7.11 -0.36 c8.65 -0.47 16 2.13 20.15 7.11 10.79 12.80 23.71 54.53 28.33 90.81 2.13 16.83 2.49 51.69 0.71 66.62 -1.78 13.75 -6.28 30.23 -11.26 41.02 -7.47 16.24 -20.75 32.36 -34.02 41.37 -5.22 3.44 -7.35 4.15 -12.33 4.15 -5.33 0 -6.99 -0.59 -11.97 -4.50z"/>
  <path d="M490.55 1130.12 c-6.88 -4.62 -8.06 -5.93 -8.06 -8.89 0 -5.22 -6.64 -44.10 -10.08 -58.92 -1.66 -7.11 -2.96 -15.17 -2.96 -17.78 l0 -4.86 5.33 0 c2.85 0 6.52 0.59 8.18 1.30 2.85 1.30 2.96 1.78 3.32 15.77 l0.36 14.46 14.58 18.02 c11.26 14.11 14.46 18.73 14.46 21.58 0 3.32 -0.36 3.56 -4.27 3.56 l-4.39 0 0.83 10.67 0.95 10.67 -5.22 -0.12 c-4.03 0 -6.76 -1.19 -13.04 -5.45z"/>
  <path d="M680.82 1118.27 c0.36 -2.49 1.19 -6.88 2.02 -9.84 1.66 -6.16 2.02 -36.87 0.59 -53.11 l-0.83 -11.02 4.86 -4.15 c5.45 -4.74 8.42 -9.60 8.42 -13.75 0 -3.91 -4.15 -10.08 -8.54 -12.80 -3.32 -2.13 -5.10 -2.37 -12.21 -1.66 l-8.42 0.71 -5.57 -17.66 c-6.64 -21.10 -8.77 -30.23 -9.84 -41.61 l-0.83 -8.54 3.44 0 c4.15 0 11.50 -1.90 16.72 -4.27 2.02 -0.95 5.57 -1.66 7.94 -1.66 4.15 0 4.74 0.59 16.72 16.95 42.44 57.73 50.38 68.88 52.04 73.97 3.67 10.67 2.49 20.03 -4.98 41.85 l-6.88 19.56 -23.35 15.77 c-19.20 12.92 -24.07 15.65 -27.62 15.65 -4.27 0 -4.27 0 -3.67 -4.39z"/>
  <path d="M498.26 1079.50 l-4.62 -5.33 0 -15.89 c0.12 -15.89 0.12 -16 3.32 -18.49 2.02 -1.66 4.86 -2.49 8.06 -2.49 l4.86 0 -0.71 16.95 c-0.47 9.25 -0.95 17.43 -1.19 18.26 -0.24 0.71 0.36 2.02 1.30 2.73 0.95 0.83 1.66 3.32 1.66 5.45 0 3.79 -0.24 4.03 -4.03 4.03 -3.32 0 -4.86 -0.95 -8.65 -5.22z"/>
  <path d="M397.14 1067.77 c-9.72 -7.71 -11.38 -10.08 -24.18 -35.21 l-11.74 -23 0.12 -62.12 c0.24 -57.61 0.36 -62.47 2.37 -67.10 2.02 -4.39 2.85 -5.10 8.30 -6.40 6.99 -1.90 13.75 -7.35 16.12 -13.28 1.54 -3.79 1.54 -4.74 -0.47 -9.13 -1.19 -2.61 -4.03 -6.28 -6.40 -8.18 -6.28 -4.98 -6.05 -10.31 0.95 -19.20 7.35 -9.60 12.45 -13.87 18.02 -15.41 8.54 -2.49 11.74 -1.90 15.89 2.96 8.89 9.96 10.20 20.03 5.93 43.63 -2.61 14.23 -4.98 51.21 -4.50 69.94 l0.36 11.85 -10.43 14.46 -10.55 14.46 2.02 6.05 c1.07 3.20 2.13 5.93 2.37 5.93 0.47 0 27.86 -38.05 36.28 -50.38 l4.03 -5.93 0.71 -36.75 c0.71 -41.02 1.42 -45.64 9.13 -60.46 4.74 -9.13 18.14 -23.47 25.13 -26.91 2.25 -1.07 7.47 -3.56 11.62 -5.57 4.03 -2.02 8.18 -3.67 9.13 -3.67 0.95 0 3.56 -1.07 5.81 -2.25 2.25 -1.30 6.40 -3.08 9.13 -4.15 11.02 -3.91 14.94 -5.33 20.39 -7.71 9.84 -4.27 14.82 -3.44 27.62 4.15 9.60 5.81 12.33 6.88 20.39 7.94 8.89 1.19 9.60 1.07 16.36 -2.02 3.79 -1.78 10.20 -5.33 14.23 -7.94 5.93 -3.79 8.18 -4.62 13.16 -4.62 6.16 0 8.77 0.83 44.22 15.06 27.74 11.14 40.19 20.86 49.08 38.77 6.88 13.40 7.82 20.51 7.82 57.97 0 26.20 0.36 33.79 1.78 37.11 0.95 2.25 10.43 16.48 20.98 31.42 l19.32 27.38 1.54 -3.79 c5.10 -12.45 5.57 -16.60 5.22 -41.49 -0.12 -13.40 -1.19 -36.28 -2.13 -50.98 -2.49 -34.38 -2.02 -46 2.13 -53.94 3.20 -6.05 12.09 -19.20 31.18 -46.12 9.96 -13.99 10.91 -14.94 14.46 -14.94 3.67 0 4.74 1.07 12.92 12.09 12.68 17.19 17.07 26.67 18.49 39.60 0.59 5.69 0.95 32.84 0.71 60.22 l-0.36 49.91 -3.79 5.45 c-2.02 2.96 -8.54 14.34 -14.34 25.49 l-10.67 20.03 -4.39 0.36 -4.50 0.36 0.47 -43.63 0.47 -43.63 -3.44 -7.71 c-5.10 -11.62 -5.22 -16 -0.71 -23.35 3.44 -5.57 3.67 -6.52 2.49 -10.08 -1.78 -5.10 -7.82 -11.26 -12.68 -12.80 -7.47 -2.49 -18.97 5.33 -21.22 14.46 -1.78 7.23 9.37 18.73 18.14 18.73 1.78 0 3.44 1.66 5.57 5.22 l3.08 5.33 0.12 63.90 0.12 63.90 -11.62 22.29 c-6.40 12.21 -13.16 23.95 -15.06 26.20 -6.16 6.99 -14.46 12.33 -19.20 12.33 -4.03 0 -4.27 -0.24 -4.27 -3.79 0 -2.13 1.07 -6.76 2.37 -10.20 3.91 -10.20 4.27 -18.73 1.30 -28.21 -2.13 -7.23 -6.16 -13.16 -32.84 -49.67 -16.72 -22.76 -32.25 -44.10 -34.38 -47.30 l-4.03 -5.69 0 -27.50 c0 -30.59 -1.07 -37.46 -7.23 -47.18 -6.28 -9.72 -9.48 -11.50 -46.12 -26.44 -13.99 -5.69 -28.81 -11.85 -32.84 -13.63 -6.16 -2.85 -7.35 -3.08 -7.94 -1.54 -0.47 0.95 0.36 3.56 1.66 5.69 1.30 2.13 2.37 5.81 2.37 8.18 l0 4.27 -14.23 0 -14.23 0 0 -4.15 c0 -2.37 1.07 -6.28 2.37 -8.89 2.49 -4.86 1.66 -6.88 -2.02 -4.86 -1.19 0.59 -13.28 5.45 -27.03 10.67 -46.95 18.26 -51.21 20.75 -58.80 34.73 l-4.03 7.47 -0.59 32.01 -0.59 32.01 -32.96 45.05 c-18.02 24.78 -34.26 47.89 -35.92 51.33 -4.74 9.48 -5.10 19.68 -1.19 31.42 1.66 4.98 3.08 10.79 3.08 12.68 0 3.32 -0.36 3.56 -4.39 3.56 -3.56 0 -5.93 -1.19 -11.02 -5.10z"/>
  <path d="M466.37 1016.91 c0.47 -2.85 1.30 -11.97 1.90 -20.51 0.47 -8.42 1.66 -18.02 2.37 -21.34 0.95 -4.03 0.95 -6.05 0.12 -6.28 -0.71 -0.24 -1.30 -2.02 -1.30 -3.91 0 -2.49 2.49 -6.99 7.94 -14.70 9.13 -13.16 9.60 -13.28 24.90 -8.18 8.18 2.73 9.84 2.96 14.34 1.78 2.73 -0.71 6.64 -1.30 8.54 -1.30 2.85 0 3.56 0.47 3.56 2.73 0 5.93 -2.85 19.56 -9.84 47.42 l-7.23 29.28 -3.91 0 c-2.85 0 -4.39 -0.83 -5.81 -2.96 -2.61 -4.03 -8.89 -7.71 -13.04 -7.71 -4.27 0 -10.31 3.67 -13.04 7.71 -1.42 2.25 -2.96 2.96 -6.05 2.96 l-4.15 0 0.71 -4.98z"/>
  <path d="M291.04 909.03 c-8.30 -7.23 -19.20 -33.31 -21.81 -52.40 -1.90 -13.16 -1.66 -41.25 0.47 -53.11 6.05 -34.62 25.96 -68.28 63.42 -106.81 9.60 -9.72 10.31 -10.31 15.17 -10.31 l4.98 0 0 19.92 c0 29.04 -0.71 30.82 -24.42 64.37 -26.08 36.87 -25.96 36.16 -25.84 96.26 l0.12 45.88 -3.91 0 c-2.73 0 -5.22 -1.19 -8.18 -3.79z"/>
  <path d="M494.35 876.67 c0 -19.44 2.73 -23.35 21.34 -30.94 l11.26 -4.62 55.13 -0.36 c40.90 -0.24 56.55 0 60.46 1.07 8.77 2.49 21.69 8.06 24.78 10.91 4.50 4.27 7.23 11.26 7.23 19.56 l0 7.35 -4.50 0 c-2.49 0 -4.98 -0.47 -5.57 -1.07 -0.71 -0.59 -8.65 -3.67 -17.78 -6.64 -16.24 -5.45 -16.95 -5.57 -37.34 -6.64 -28.21 -1.30 -64.13 -0.24 -77.89 2.49 -6.05 1.19 -14.34 3.91 -18.73 6.05 -8.06 3.91 -10.08 6.40 -10.08 12.45 0 2.49 -0.59 2.85 -4.15 2.85 l-4.15 0 0 -12.45z"/>
  <path d="M893.26 865.17 c-0.12 -26.55 -1.54 -39.60 -6.64 -60.58 -5.10 -20.63 -10.31 -33.55 -28.33 -69.59 -17.19 -34.26 -21.69 -45.29 -27.38 -67.45 -4.62 -18.26 -4.62 -19.09 1.07 -19.09 4.27 -0.12 5.81 1.30 42.08 38.05 41.49 42.08 48.60 50.98 55.36 69.47 4.98 13.99 5.93 21.81 5.93 52.52 0 29.64 -1.07 36.75 -7.23 49.32 -5.81 11.62 -25.61 31.30 -31.53 31.30 l-3.32 0 0 -23.95z"/>
  <path d="M421.32 776.25 c-9.60 -18.49 -21.81 -41.85 -27.15 -51.92 -5.45 -10.08 -13.63 -26.08 -18.38 -35.56 l-8.65 -17.19 0.71 -63.78 0.83 -63.66 7.94 -9.25 c4.50 -5.22 9.96 -12.57 12.21 -16.60 2.25 -4.03 4.74 -7.35 5.57 -7.35 1.54 0 8.89 -11.74 16.95 -26.67 6.64 -12.45 14.46 -22.17 26.44 -32.96 11.26 -10.08 26.20 -17.43 35.68 -17.43 16 0 50.62 22.52 79.90 51.92 17.19 17.43 17.78 18.61 13.87 27.98 -1.66 4.03 -1.66 4.74 0.47 9.48 4.27 9.72 15.65 15.06 23.47 10.91 7.11 -3.67 12.21 -12.45 12.21 -21.10 0 -1.90 0.59 -3.32 1.30 -3.32 0.71 0 5.93 -1.78 11.62 -4.03 5.57 -2.25 18.97 -6.64 29.76 -9.60 24.66 -6.88 29.40 -8.65 30.70 -11.02 1.54 -3.08 3.91 -13.99 5.33 -25.01 l1.30 -10.20 6.52 -0.36 c8.65 -0.47 23.71 4.27 33.19 10.67 17.43 11.50 27.27 34.97 29.28 69.47 0.36 6.64 1.19 12.45 1.78 12.80 0.47 0.36 0.95 2.49 0.95 4.74 0 3.67 -0.36 4.03 -3.44 4.03 -1.90 0 -7.23 -1.54 -11.74 -3.56 -4.62 -2.02 -9.13 -3.56 -9.96 -3.56 -1.54 0 -4.98 1.42 -48.37 19.56 -23.24 9.60 -48.60 20.51 -61.88 26.55 l-8.06 3.56 0 59.87 c0 54.30 0.24 59.99 1.90 60.93 2.25 1.30 6.52 0.47 7.82 -1.42 0.47 -0.71 0.95 -21.22 0.95 -45.64 l0 -44.22 29.99 0.95 c60.34 2.13 64.49 1.66 83.34 -9.72 11.74 -6.99 17.07 -8.06 22.64 -4.39 2.96 2.02 3.08 1.90 5.93 -1.42 l2.73 -3.56 -12.68 -6.16 c-26.55 -12.80 -43.15 -18.14 -56.31 -18.14 -5.69 0 -5.69 0 -5.69 -3.91 0 -5.22 1.54 -6.40 18.02 -13.63 17.78 -7.82 23.12 -8.18 37.11 -1.90 5.22 2.25 14.70 6.40 21.10 9.13 l11.50 4.86 0 31.06 c0 35.21 -1.07 45.88 -6.05 58.56 -9.25 23.95 -33.08 47.89 -58.56 58.68 l-7.71 3.32 0 31.30 0 31.18 -4.15 0 c-2.49 0 -6.76 -1.42 -10.43 -3.56 -7.59 -4.27 -27.03 -12.80 -37.82 -16.60 -7.82 -2.73 -8.06 -2.96 -8.06 -6.88 0 -2.61 1.07 -5.33 2.96 -7.59 1.54 -1.90 3.56 -5.57 4.27 -8.06 1.30 -4.39 1.19 -5.33 -2.85 -13.28 -2.37 -4.74 -5.57 -10.20 -6.99 -11.97 -2.49 -3.08 -3.08 -3.32 -5.93 -2.02 l-3.20 1.54 4.15 7.59 c4.39 8.30 5.57 18.26 2.61 21.93 -4.62 5.57 -13.63 7.47 -17.78 3.79 -2.02 -1.90 -2.49 -1.66 -8.30 2.96 -15.65 12.45 -18.14 13.75 -29.40 14.11 -5.57 0.24 -12.33 -0.12 -14.94 -0.83 -2.61 -0.71 -9.13 -4.86 -15.17 -9.60 -9.60 -7.59 -10.67 -8.18 -12.57 -6.52 -1.07 0.95 -4.15 1.78 -6.99 1.78 -4.27 0 -5.81 -0.71 -9.25 -4.15 -4.03 -4.03 -4.15 -4.50 -3.56 -10.55 0.36 -3.56 2.25 -9.48 4.27 -13.51 3.56 -6.99 3.56 -7.35 1.42 -8.54 -3.67 -1.90 -4.03 -1.66 -9.25 6.88 -8.65 14.23 -9.13 19.68 -2.61 28.57 1.90 2.73 3.44 6.28 3.44 8.18 0 2.73 -0.71 3.56 -4.39 4.86 -33.31 11.74 -49.43 20.27 -61.53 32.84 -7.35 7.71 -9.01 8.77 -12.68 8.77 l-4.15 0 -17.55 -33.43z m119.97 -153.28 c2.49 -3.32 11.50 -30.35 10.43 -31.42 -0.59 -0.47 -9.37 -4.39 -19.44 -8.65 -10.08 -4.27 -35.09 -14.70 -55.60 -23.35 -26.67 -11.14 -37.94 -15.41 -39.95 -14.94 -7.35 1.90 -46.71 20.03 -46.71 21.58 0 0.36 0.83 2.13 1.78 4.03 l1.78 3.44 10.91 -4.86 c6.05 -2.61 13.99 -6.16 17.55 -7.82 4.39 -2.13 9.13 -3.32 14.23 -3.56 7.47 -0.47 8.54 -0.12 24.90 7.23 17.07 7.59 17.19 7.71 17.55 11.74 l0.36 4.15 -10.43 0.71 c-13.51 0.83 -31.42 6.52 -51.69 16.48 l-15.06 7.47 2.85 3.56 c2.73 3.32 2.85 3.44 5.81 1.42 5.33 -3.44 11.85 -2.61 19.56 2.61 18.85 12.68 22.05 13.28 70.77 12.57 32.72 -0.59 39.36 -0.95 40.42 -2.37z"/>
  <path d="M931.20 698.37 c-0.36 -0.59 -4.98 -4.50 -10.43 -8.54 -37.58 -28.45 -65.32 -52.52 -74.92 -65.08 -10.55 -13.75 -21.22 -36.16 -20.51 -43.27 0.36 -3.20 0.83 -3.56 4.86 -3.91 4.39 -0.36 4.86 0 59.51 53.82 48.37 47.66 55.13 54.77 55.13 57.85 0 2.73 -0.36 3.20 -1.42 2.13 -2.61 -2.61 -4.39 -1.54 -5.81 3.32 -1.42 4.62 -4.62 6.40 -6.40 3.67z"/>
  <path d="M881.76 608.98 c-84.41 -83.93 -87.37 -87.01 -91.52 -95.67 -5.33 -10.91 -7.82 -19.92 -7.82 -28.10 l0 -6.28 4.50 0 c2.49 0 4.98 0.47 5.57 1.07 3.56 3.44 23.83 11.85 50.38 20.86 30.47 10.31 43.63 16.24 53.35 24.07 9.37 7.47 54.53 52.75 60.70 60.70 3.20 4.27 7.94 11.97 10.43 17.19 8.06 16.72 8.54 19.80 9.13 58.44 l0.59 34.62 -3.91 0 c-3.67 -0.12 -11.02 -6.99 -91.40 -86.90z"/>
  <path d="M192.05 646.09 c0 -20.27 5.22 -38.41 15.65 -54.77 6.88 -10.91 59.39 -62.95 71.01 -70.54 10.67 -6.88 26.32 -13.40 52.64 -21.69 10.43 -3.32 24.42 -8.65 31.18 -11.85 9.60 -4.74 13.40 -5.93 18.02 -5.93 l5.93 0 0 4.15 c0 2.25 -0.59 4.15 -1.30 4.15 -0.71 0 -3.44 2.37 -5.93 5.22 -9.96 11.38 -28.93 25.13 -72.43 52.87 -56.43 35.92 -89.98 68.17 -102.66 98.63 -2.13 4.98 -3.79 9.60 -3.79 10.31 0 0.71 -1.90 1.30 -4.15 1.30 l-4.15 0 0 -11.85z"/>
  <path d="M233.54 530.15 c0 -36.16 12.09 -64.96 34.73 -82.87 9.48 -7.59 15.41 -10.43 42.56 -20.98 27.27 -10.55 45.64 -17.31 46.95 -17.31 0.71 0 3.08 -0.95 5.22 -2.25 5.45 -3.08 38.77 -14.94 50.03 -17.90 7.35 -1.90 13.16 -2.37 27.03 -2.37 l17.55 0 0 4.27 c0 3.91 -0.36 4.39 -6.76 7.23 -19.20 8.77 -27.03 15.29 -42.91 35.80 -24.90 31.89 -35.68 39 -84.88 55.72 -15.65 5.33 -31.18 11.02 -34.62 12.57 -10.31 4.62 -20.51 12.33 -33.67 25.13 -11.26 10.91 -13.16 12.21 -16.95 12.21 l-4.27 0 0 -9.25z"/>
  <path d="M919.34 498.38 c-7.82 -5.93 -38.29 -20.39 -69.11 -32.60 -20.39 -8.18 -43.15 -19.92 -52.99 -27.38 -10.55 -7.94 -17.19 -14.94 -24.42 -25.61 -4.50 -6.76 -5.81 -9.84 -5.81 -13.40 0 -4.50 0.12 -4.62 3.91 -4.62 3.44 0 58.92 20.39 96.85 35.56 24.42 9.72 35.09 16.95 46.71 31.30 7.23 8.89 15.17 25.49 15.89 33.08 l0.59 5.57 -4.62 0 c-2.61 0 -5.69 -0.83 -6.99 -1.90z"/>
  <path d="M876.67 421.56 c-14.58 -6.76 -108.71 -42.08 -122.22 -46 -12.45 -3.56 -35.92 -3.79 -48.49 -0.47 -8.30 2.25 -41.73 15.06 -84.17 32.13 -12.33 5.10 -25.13 10.20 -28.33 11.50 -3.20 1.19 -7.47 2.13 -9.48 1.90 -3.20 -0.36 -3.67 -0.83 -4.03 -4.27 -0.47 -4.50 -2.61 -0.36 52.28 -98.04 46.71 -82.98 48.25 -85.83 48.25 -86.54 0 -0.36 -17.55 -0.59 -39.12 -0.59 l-39.12 0 0 -13.87 c0 -7.71 -0.36 -16.83 -0.71 -20.15 l-0.83 -6.28 6.40 0 c10.67 0 37.34 3.44 55.60 7.11 16 3.32 36.63 9.01 56.31 15.77 8.18 2.73 8.30 2.85 8.65 7.35 0.36 3.44 -0.24 5.22 -2.49 7.59 -4.03 4.39 -25.73 33.19 -26.44 35.09 -0.36 0.83 0.47 3.79 1.90 6.52 l2.49 4.86 4.50 -5.69 c10.08 -12.92 36.87 -47.89 43.86 -56.90 7.11 -9.60 7.47 -9.84 12.33 -9.84 l5.10 0 2.02 28.81 c2.73 36.51 5.57 77.53 5.57 81.56 0 2.73 0.95 3.44 8.06 6.16 10.55 4.15 51.45 18.61 52.40 18.61 0.47 0 13.63 -13.51 29.16 -29.87 27.62 -29.28 28.45 -29.99 33.31 -30.35 l5.10 -0.36 0 4.86 c0 2.61 -1.90 22.29 -4.15 43.63 -4.50 41.49 -10.08 94.72 -10.08 97.21 0 2.25 -6.99 1.54 -13.63 -1.42z"/>
  <path d="M278.11 417.65 c-0.47 -3.20 -2.37 -20.86 -4.27 -39.48 -1.90 -18.61 -4.86 -46 -6.52 -61.05 -1.66 -14.94 -2.96 -29.76 -2.96 -32.84 l0 -5.69 5.10 0 c4.98 0 5.33 0.24 22.17 18.14 9.37 9.84 22.05 23.35 28.33 29.76 l11.26 11.74 9.01 -3.20 c4.86 -1.66 10.55 -3.08 12.68 -3.08 2.02 0 4.15 -0.47 4.50 -1.19 0.71 -1.19 4.15 -2.85 15.41 -7.11 3.91 -1.54 9.84 -3.91 13.16 -5.33 l6.05 -2.73 0.83 -15.77 c0.47 -8.77 1.90 -28.93 3.08 -44.93 1.19 -16 2.61 -34.50 3.08 -41.25 l0.83 -12.09 4.39 0 c4.15 0 4.86 0.59 11.97 9.84 15.41 20.03 44.22 57.26 46.83 60.46 l2.73 3.32 2.61 -5.10 c3.08 -6.05 4.15 -3.91 -14.58 -27.86 -16.12 -20.75 -17.31 -24.07 -9.48 -26.44 2.37 -0.71 6.05 -2.13 7.94 -2.96 5.57 -2.49 39 -11.85 50.38 -14.11 5.57 -1.07 13.51 -2.73 17.78 -3.67 4.27 -0.95 10.20 -1.66 13.40 -1.78 5.33 0 5.57 0.12 5.57 3.44 0 1.90 -2.73 8.18 -6.40 14.58 -8.77 15.53 -46.71 85.59 -47.66 87.96 -0.59 1.66 3.08 1.90 39.83 2.13 l40.42 0.36 0.24 54.89 0.24 54.77 -4.27 0 c-2.73 0 -19.20 -5.93 -45.88 -16.60 -51.09 -20.51 -59.63 -23 -78.48 -22.17 -16.72 0.71 -26.67 3.20 -52.87 13.16 -11.02 4.15 -33.31 12.68 -49.67 18.85 -16.24 6.16 -33.90 12.92 -39.12 14.94 -5.22 2.02 -11.14 3.67 -13.16 3.67 -3.67 0 -3.79 -0.24 -4.50 -5.57z"/>
  <path d="M580.89 330.75 l0 -42.68 -36.16 0 -36.16 0 0 -4.15 c0 -4.15 2.49 -8.89 54.06 -102.78 l14.11 -25.84 5.69 0 5.57 0 0 13.63 c0 11.02 -0.36 13.63 -1.66 13.63 -0.95 0 -2.02 -0.95 -2.25 -2.13 -0.36 -1.07 -0.59 4.86 -0.59 13.40 0 8.54 0.24 14.46 0.59 13.28 0.24 -1.07 1.30 -2.02 2.25 -2.02 1.42 0 1.66 3.44 1.66 19.56 l0 19.56 33.79 0 33.79 0 0 4.62 c0 3.44 -1.66 7.59 -6.28 15.77 -9.84 17.07 -50.98 90.57 -56.07 100.17 -4.27 7.94 -4.86 8.65 -8.42 8.65 l-3.91 0 0 -42.68z"/>
  <path d="M826.28 322.57 c-0.95 -0.47 -9.01 -3.56 -17.78 -6.64 -8.77 -3.20 -16.60 -6.28 -17.43 -6.99 -0.83 -0.83 -2.13 -10.79 -3.20 -26.32 -2.61 -35.09 -2.85 -32.48 2.96 -32.48 4.03 0 6.52 1.19 14.34 6.76 13.99 9.72 28.69 21.93 39.24 32.13 11.97 11.85 12.09 13.04 0.71 25.49 -7.59 8.30 -8.77 9.13 -12.68 9.13 -2.37 0 -5.22 -0.47 -6.16 -1.07z"/>
 </g>
 <g fill="#042657">
  <path d="M546.86 1187.50 c-85.95 -58.21 -137.99 -93.18 -147.83 -99.22 -5.81 -3.56 -14.46 -10.20 -19.09 -14.82 -7.71 -7.71 -9.48 -10.31 -22.52 -35.56 -22.41 -43.51 -43.39 -82.63 -46.83 -87.73 -3.79 -5.45 -8.42 -9.84 -36.16 -34.38 -29.52 -26.08 -38.05 -34.62 -44.46 -44.10 -11.97 -17.90 -14.70 -31.89 -13.87 -70.89 0.47 -22.64 1.07 -28.93 3.08 -36.75 3.67 -13.63 8.89 -26.08 14.82 -34.85 4.50 -6.64 4.98 -7.94 3.56 -9.37 -1.42 -1.42 -1.19 -2.37 2.13 -6.52 2.13 -2.73 26.91 -28.10 55.13 -56.55 l51.21 -51.57 0.12 -13.04 0 -13.04 -36.39 36.16 c-87.61 86.78 -85.35 84.76 -87.49 82.98 -1.66 -1.42 -4.62 1.07 -25.01 21.46 l-23 23 0 -52.64 c0 -48.25 0.24 -53.47 2.49 -64.49 4.74 -23.35 12.09 -38.05 28.57 -56.55 l10.43 -11.74 0 -13.40 c0 -52.28 11.50 -82.51 40.78 -107.17 l5.69 -4.86 -1.30 -14.70 c-0.83 -8.06 -2.73 -25.84 -4.27 -39.60 -9.37 -81.68 -16.24 -153.64 -14.94 -155.06 0.59 -0.59 14.82 13.63 31.65 31.65 l30.59 32.60 11.26 -10.91 c15.06 -14.58 30.47 -26.79 49.32 -39.12 l15.53 -10.08 2.73 -34.85 c1.54 -19.09 3.08 -36.51 3.56 -38.65 0.71 -4.03 0.83 -3.91 21.93 22.76 11.74 14.70 21.81 26.79 22.64 26.79 0.83 0 7.23 -2.13 14.34 -4.74 27.62 -10.31 61.65 -18.49 88.79 -21.34 l13.04 -1.42 4.03 -7.35 c8.18 -14.94 40.78 -73.97 45.52 -82.27 2.61 -4.62 5.57 -8.54 6.40 -8.54 1.30 0 1.54 9.13 1.54 48.49 l0 48.49 8.06 0.71 c42.32 3.91 66.86 8.77 101.83 20.39 12.57 4.15 23.35 7.59 23.95 7.59 0.59 0 3.32 -3.08 6.16 -6.88 14.23 -19.09 36.99 -46.59 37.82 -45.64 0.47 0.47 1.78 14.58 2.85 31.18 1.07 16.60 2.37 33.79 2.73 38.17 l0.71 7.94 9.84 6.05 c15.89 9.72 37.34 26.44 51.33 39.71 7.23 6.88 13.51 12.45 14.11 12.45 0.95 0 29.04 -29.40 54.06 -56.55 7.11 -7.71 10.55 -8.42 9.60 -1.90 -0.36 2.49 -2.25 21.34 -4.15 41.85 -2.02 20.51 -5.45 54.41 -7.82 75.28 -2.25 20.86 -5.22 48.96 -6.64 62.47 l-2.61 24.54 9.72 9.13 c25.96 24.07 35.68 49.55 36.51 94.48 l0.36 22.29 7.59 8.54 c16.72 18.73 24.90 33.31 30.11 53.35 l3.20 12.09 0.47 55.60 0.36 55.60 -5.22 -4.62 c-2.85 -2.49 -9.48 -9.13 -14.70 -14.70 -22.41 -23.59 -143.80 -142.38 -144.98 -141.67 -0.83 0.47 -0.71 1.54 0.12 3.32 0.83 1.66 -0.36 0.95 -3.56 -2.13 l-4.86 -4.62 0.12 11.14 c0.12 6.16 0.47 12.45 0.83 13.87 0.47 1.42 11.50 13.40 24.54 26.67 83.58 84.76 82.63 83.70 81.09 86.42 -1.07 2.13 -0.83 3.08 1.19 5.69 4.98 6.28 12.33 19.20 15.53 27.62 5.93 15.29 7.35 24.30 7.94 52.04 0.71 28.45 -0.24 37.82 -5.45 52.75 -6.52 19.09 -12.57 25.84 -63.42 71.25 -25.13 22.41 -24.66 21.81 -43.74 58.09 -6.16 11.62 -18.26 34.62 -26.91 51.09 -10.08 19.09 -17.78 32.25 -20.98 35.80 -3.44 3.91 -20.27 15.77 -52.28 37.11 -25.84 17.31 -62.47 41.97 -81.44 54.77 -43.63 29.76 -74.21 50.38 -74.45 50.26 -0.12 0 -16.95 -11.38 -37.22 -25.13z m76.11 -32.25 c10.43 -7.11 28.69 -19.44 40.66 -27.62 11.97 -8.06 22.05 -14.46 22.29 -14.11 0.36 0.36 0 1.78 -0.71 3.20 -1.30 2.49 -1.30 2.49 2.02 0.71 1.78 -0.95 12.68 -8.06 24.07 -15.77 l20.63 -13.99 6.88 -19.56 c3.91 -11.26 6.76 -21.69 6.76 -24.54 0.12 -8.06 -3.67 -15.89 -15.53 -32.01 -6.16 -8.30 -19.92 -27.03 -30.47 -41.49 -10.55 -14.46 -19.68 -26.67 -20.27 -27.03 -0.71 -0.36 -2.85 0.12 -4.98 1.07 -5.22 2.37 -12.68 4.27 -16.60 4.27 -2.13 0 -3.32 0.59 -3.32 1.78 0 2.13 -5.57 2.37 -12.21 0.47 -7.47 -2.02 -12.92 -8.30 -29.99 -34.38 l-16.36 -24.78 -9.96 0 c-5.45 0 -10.91 0.59 -12.09 1.19 -1.19 0.71 -9.01 11.14 -17.19 23.47 -18.26 27.03 -22.41 31.65 -30.11 34.02 -2.49 0.71 -2.73 0.59 -2.13 -1.78 0.47 -2.02 0.24 -2.37 -1.30 -1.66 -5.57 2.37 -15.17 1.90 -24.54 -1.30 l-9.37 -3.08 -2.49 3.20 c-11.14 15.41 -13.51 19.20 -11.02 18.49 2.13 -0.47 2.25 -0.24 1.54 2.25 -0.47 1.54 -1.54 3.67 -2.37 4.62 -0.83 0.95 -10.43 14.11 -21.34 29.04 -17.55 24.07 -26.67 38.77 -26.67 42.80 0 2.25 11.97 37.70 13.63 40.31 0.95 1.42 11.14 8.89 22.76 16.60 11.50 7.71 21.58 14.46 22.05 14.82 0.59 0.47 1.19 2.13 1.19 3.79 0 2.49 1.54 4.15 8.06 8.42 9.13 6.05 11.14 6.64 9.96 2.96 -0.71 -1.90 -0.47 -2.37 0.71 -1.54 1.78 1.07 40.07 26.79 64.25 43.27 l15.29 10.43 9.60 -6.88 c5.33 -3.79 18.26 -12.57 28.69 -19.68z m-214.45 -87.37 c-6.64 -16.12 -7.35 -34.50 -1.54 -46.12 1.78 -3.56 18.02 -26.67 36.04 -51.45 l32.96 -45.05 0.59 -32.01 0.59 -32.01 4.03 -7.47 c7.59 -13.99 11.26 -16.12 59.99 -35.21 14.34 -5.69 27.50 -10.91 29.40 -11.62 6.99 -2.85 10.08 4.50 5.69 13.28 -1.42 2.61 -2.49 5.10 -2.49 5.45 0 0.36 4.86 0.59 10.67 0.59 5.93 0 10.67 -0.36 10.67 -0.83 0 -0.59 -1.07 -2.49 -2.37 -4.50 -2.37 -3.56 -3.08 -9.25 -1.66 -12.92 1.07 -2.85 6.40 -2.25 14.82 1.54 4.15 1.90 19.09 8.06 33.08 13.75 36.63 14.94 39.83 16.72 46.12 26.44 6.16 9.72 7.23 16.60 7.23 47.18 l0 27.50 4.03 5.69 c2.13 3.20 17.66 24.54 34.38 47.30 26.67 36.51 30.70 42.44 32.96 49.67 3.08 10.08 2.61 25.13 -1.30 34.97 -1.30 3.56 -2.25 6.76 -1.90 6.99 0.83 0.83 11.85 -7.71 15.77 -12.09 1.90 -2.25 9.01 -14.58 15.65 -27.38 10.08 -19.32 11.97 -23.95 11.38 -26.91 -0.59 -2.85 0.83 -6.40 6.64 -17.90 7.23 -13.99 7.47 -14.34 8.06 -10.31 0.59 4.03 0.71 3.91 7.59 -8.89 12.68 -23.71 15.29 -28.45 18.97 -33.79 l3.67 -5.33 0.36 -46.35 c0.24 -25.37 -0.12 -50.98 -0.71 -56.67 -1.42 -13.04 -5.81 -22.29 -18.73 -39.71 -8.06 -11.14 -9.25 -12.21 -10.55 -10.31 -1.42 1.90 -1.90 1.54 -5.10 -3.08 -7.23 -10.43 -11.38 -18.38 -15.06 -28.57 l-3.67 -10.43 -25.84 49.55 -25.96 49.55 1.54 7.11 c0.83 4.27 1.66 20.98 2.02 42.20 l0.59 35.09 15.89 22.17 c12.92 18.02 15.77 22.76 15.17 24.78 -0.59 1.42 -0.95 3.20 -1.07 3.79 -0.12 2.02 -6.76 21.34 -7.71 22.29 -0.95 1.07 -5.10 -4.39 -28.33 -37.34 -8.54 -12.09 -16.36 -23.95 -17.31 -26.32 -1.42 -3.32 -1.78 -10.67 -1.78 -37.11 0 -37.46 -0.95 -44.57 -7.82 -57.97 -8.89 -17.90 -21.34 -27.62 -49.08 -38.77 -31.06 -12.45 -38.17 -15.06 -40.66 -15.06 -1.42 0 -5.45 1.90 -8.89 4.27 -11.14 7.47 -20.27 11.14 -27.50 11.14 -13.04 0 -19.92 -1.90 -31.53 -8.89 -6.05 -3.56 -11.74 -6.52 -12.68 -6.52 -1.07 0 -4.39 1.07 -7.59 2.49 -5.45 2.37 -9.37 3.79 -20.39 7.71 -2.73 1.07 -6.88 2.85 -9.13 4.15 -2.25 1.19 -4.86 2.25 -5.81 2.25 -0.95 0 -5.10 1.66 -9.13 3.67 -4.15 2.02 -9.37 4.50 -11.62 5.57 -6.99 3.44 -20.39 17.78 -25.13 26.91 -7.71 14.82 -8.42 19.44 -9.13 60.46 l-0.71 36.75 -4.03 5.93 c-8.77 12.80 -36.04 50.62 -38.65 53.70 -2.13 2.49 -2.96 2.85 -3.44 1.42 -0.36 -0.95 -2.13 -6.16 -4.03 -11.50 l-3.44 -9.84 11.26 -15.65 c9.25 -12.57 11.38 -16.36 11.38 -19.80 0.12 -2.73 1.54 -6.52 3.91 -10.20 l3.67 -5.93 0.59 -33.79 c0.36 -23.24 1.07 -36.16 2.25 -41.25 1.66 -6.99 1.66 -7.59 -0.59 -11.26 -1.30 -2.02 -13.16 -24.78 -26.44 -50.38 -23.24 -45.52 -23.95 -46.59 -24.66 -42.08 -1.66 9.01 -11.26 26.44 -25.01 45.64 -7.71 10.67 -15.53 22.41 -17.43 26.32 -6.28 12.33 -6.88 18.14 -6.88 68.28 l0 45.64 4.62 7.94 c2.49 4.27 7.35 13.16 10.79 19.56 3.44 6.40 10.79 19.80 16.24 29.87 8.65 15.65 9.96 18.85 9.48 22.52 -0.47 3.67 1.19 7.71 11.50 27.98 13.04 25.73 14.70 28.10 24.42 35.80 6.64 5.22 9.01 6.28 7.82 3.67z m120.21 -164.90 l9.60 -13.87 -3.32 -1.30 c-1.78 -0.71 -5.10 -2.61 -7.11 -4.15 -5.45 -4.15 -5.45 -10.20 0 -16.36 3.56 -4.15 4.15 -4.50 10.31 -4.27 17.07 0.36 82.98 0.36 87.13 0 8.65 -0.83 13.04 0.71 16.48 6.05 5.10 7.59 4.03 11.38 -4.27 16.36 l-6.76 3.91 9.60 14.46 c5.22 7.82 10.91 15.77 12.57 17.55 l2.96 3.20 5.69 -2.96 5.81 -2.85 0 -21.93 c0 -18.97 0.24 -21.81 1.78 -21.22 2.61 1.07 2.25 -6.05 -0.47 -11.97 -2.96 -6.52 -6.52 -9.48 -16.12 -13.40 -15.53 -6.28 -15.17 -6.28 -70.54 -5.93 l-51.57 0.36 -11.26 4.62 c-17.78 7.23 -21.46 11.85 -21.22 27.62 0.12 9.72 0.24 9.84 1.90 2.13 0.71 -3.44 1.07 1.54 1.54 17.78 l0.59 22.52 5.33 2.73 5.33 2.73 3.20 -3.91 c1.78 -2.13 7.47 -10.20 12.80 -17.90z m-229.39 -39.60 c0.12 -60.10 -0.12 -59.39 25.96 -96.26 23.24 -32.84 24.42 -35.80 24.42 -60.93 0 -14.23 -0.24 -16.36 -1.78 -15.77 -1.54 0.59 -1.78 -2.13 -1.78 -20.39 l0 -20.98 -40.78 40.90 c-22.41 22.52 -42.80 43.86 -45.40 47.54 -6.40 8.65 -12.57 20.98 -16 31.89 -2.49 8.30 -2.73 10.79 -2.73 37.94 l0 29.04 3.44 8.06 c4.86 11.62 11.62 20.15 26.32 33.43 9.13 8.18 13.87 13.40 16.12 17.78 2.49 4.74 10.20 13.63 11.97 13.63 0.12 0 0.24 -20.63 0.24 -45.88z m588.47 23.24 c9.72 -8.54 9.96 -8.65 9.25 -4.98 l-0.71 3.91 3.79 -3.20 c9.60 -8.06 20.98 -21.10 24.42 -28.10 5.93 -12.21 7.23 -19.92 7.23 -45.76 0 -27.15 -1.07 -35.33 -5.93 -48.96 -6.64 -18.26 -13.87 -27.38 -53.94 -68.17 -20.03 -20.39 -37.46 -37.58 -38.65 -38.29 -2.02 -1.07 -2.13 -0.83 -1.07 1.90 1.90 5.10 1.42 4.98 -4.62 -1.07 l-5.93 -5.81 0.47 35.33 c0.71 47.42 0.24 45.76 25.01 80.61 8.42 11.74 16.83 24.78 18.73 29.04 6.28 13.75 6.64 17.19 6.64 63.90 l0 43.15 2.73 -2.25 c1.42 -1.30 7.11 -6.40 12.57 -11.26z m-435.67 -89.27 c12.09 -12.45 28.33 -21.10 61.29 -32.72 l4.27 -1.54 -3.56 -5.10 c-4.50 -6.40 -5.57 -15.41 -2.85 -23.47 2.13 -6.28 12.09 -22.05 13.87 -22.05 2.13 0 13.04 5.93 13.04 6.99 0 0.59 -2.02 4.98 -4.62 9.84 -6.40 11.97 -6.76 14.23 -3.08 18.61 4.27 4.98 7.23 5.69 10.67 2.49 3.91 -3.67 6.76 -2.73 19.09 7.11 11.74 9.25 16.60 11.14 26.79 10.43 7.11 -0.47 11.02 -2.73 26.20 -14.58 7.71 -5.93 10.67 -6.52 14.58 -2.85 l2.73 2.49 4.15 -2.61 c7.23 -4.39 6.99 -9.01 -0.95 -22.52 -2.37 -4.03 -4.27 -7.59 -4.27 -8.06 0 -1.07 11.38 -7.35 13.40 -7.35 1.78 0 10.43 12.68 13.75 20.15 4.15 9.13 2.61 20.27 -3.67 26.91 -1.42 1.54 -2.37 2.96 -2.02 3.20 0.24 0.24 4.27 1.78 8.77 3.44 12.09 4.39 27.38 11.02 35.92 15.77 4.03 2.25 7.71 4.03 7.94 4.03 0.36 0 0.59 -1.07 0.59 -2.37 0 -2.13 0.36 -2.25 2.37 -1.19 1.30 0.71 5.81 4.50 10.08 8.54 4.27 3.91 7.94 6.99 8.18 6.76 0.47 -0.47 25.01 -47.06 51.81 -98.40 l16.48 -31.42 0 -58.68 0 -58.68 -4.27 -4.15 c-16.60 -15.89 -26.20 -37.46 -29.64 -66.39 l-1.78 -15.29 -10.91 -14.46 c-12.68 -16.83 -16.72 -20.98 -26.20 -27.15 -11.97 -7.82 -24.54 -12.09 -37.58 -12.68 l-11.38 -0.47 -40.54 16.24 -40.66 16.36 -7.94 -0.59 -8.06 -0.59 -3.20 5.69 c-2.85 5.22 -3.67 5.81 -7.23 5.81 l-4.03 0 -0.36 -9.01 -0.36 -8.89 -27.15 -11.26 c-35.92 -14.82 -37.46 -15.17 -48.84 -13.51 -15.77 2.37 -28.93 7.94 -40.07 16.83 -4.15 3.44 -12.21 12.33 -19.68 22.17 l-12.68 16.48 -0.83 11.62 c-0.47 6.40 -1.66 15.41 -2.73 20.03 -1.90 8.77 -7.82 18.97 -10.08 17.66 -0.71 -0.47 -0.95 -0.36 -0.47 0.47 0.36 0.59 0.36 1.42 -0.24 1.66 -0.47 0.12 -2.73 3.32 -4.98 6.88 -2.25 3.56 -7.47 10.31 -11.50 15.06 l-7.47 8.54 -0.71 60.22 -0.83 60.22 8.65 17.19 c4.74 9.48 12.92 25.49 18.38 35.56 5.33 10.08 17.55 33.43 27.15 51.92 9.60 18.38 17.78 33.43 18.14 33.43 0.36 0 4.50 -3.91 9.13 -8.77z m520.78 -139.41 c-0.59 -31.06 -1.42 -35.68 -9.13 -51.57 -2.49 -5.22 -7.23 -12.92 -10.43 -17.19 -6.16 -7.94 -51.33 -53.23 -60.70 -60.70 -9.72 -7.82 -22.88 -13.75 -53.35 -24.07 -26.55 -9.01 -46 -17.07 -50.74 -20.98 -0.83 -0.71 -1.78 -0.95 -2.25 -0.47 -1.54 1.54 2.25 15.65 6.88 25.61 l4.74 10.08 87.37 86.66 c78.36 77.89 87.37 86.42 87.84 83.58 0.12 -1.66 0.12 -15.65 -0.24 -30.94z m-625.82 -122.70 c16.72 -16.24 24.66 -27.27 28.69 -39.60 1.90 -6.05 3.44 -8.89 5.22 -9.60 2.49 -1.07 2.49 -1.07 -0.12 -1.07 -1.54 -0.12 -8.18 2.49 -14.82 5.81 -6.76 3.20 -20.75 8.54 -31.18 11.85 -26.32 8.30 -41.97 14.82 -52.64 21.69 -11.62 7.59 -64.13 59.63 -71.01 70.54 -9.84 15.41 -15.77 34.73 -15.53 51.45 0.12 8.54 0.12 8.65 1.66 4.50 1.42 -3.79 1.66 -2.61 1.66 13.40 l0.12 17.55 66.74 -66.15 c36.63 -36.39 73.14 -72.55 81.21 -80.38z m-95.91 -11.62 c13.16 -12.80 23.35 -20.51 33.67 -25.13 3.44 -1.54 18.97 -7.23 34.62 -12.57 49.20 -16.72 59.99 -23.83 84.88 -55.72 15.89 -20.39 22.52 -26.08 43.15 -36.16 l7.11 -3.44 -14.11 -0.36 c-11.02 -0.24 -16.12 0.24 -23.71 2.13 -10.91 2.73 -47.30 15.77 -51.33 18.38 -1.42 0.95 -3.32 1.78 -4.03 1.78 -0.83 0 -8.65 2.73 -17.55 6.05 -55.01 20.75 -61.05 23.47 -72.08 32.25 -18.38 14.46 -30.35 37.22 -33.55 63.66 -1.30 11.14 -1.54 21.34 -0.47 21.34 0.36 0 6.40 -5.45 13.40 -12.21z m674.18 -14.11 c-1.07 -5.45 -2.25 -11.14 -2.73 -12.80 -0.71 -2.73 -0.59 -2.85 1.30 -1.30 3.08 2.61 3.32 0.95 0.71 -5.69 -6.05 -15.53 -14.34 -27.27 -25.96 -37.22 -11.14 -9.60 -20.27 -13.63 -88.91 -39.60 -19.92 -7.59 -36.99 -13.99 -37.94 -14.34 -1.19 -0.47 -1.30 0.12 -0.71 2.13 0.59 2.02 0.47 2.49 -0.71 2.02 -9.01 -3.67 -25.61 -8.18 -31.77 -8.65 l-7.82 -0.71 5.33 3.20 c11.38 6.64 21.34 16.36 34.02 33.31 20.98 27.86 36.16 37.46 81.56 52.04 35.92 11.50 47.30 17.43 65.20 33.79 11.02 10.08 11.38 9.72 8.42 -6.16z m-35.80 -119.50 c1.66 -16.60 4.98 -47.30 7.23 -68.17 4.74 -43.74 4.62 -41.14 2.61 -40.66 -0.83 0.24 -14.46 14.11 -30.35 30.94 -16.48 17.43 -29.76 30.47 -30.94 30.47 -2.02 0 -41.02 -13.51 -57.14 -19.80 -7.11 -2.73 -8.06 -3.44 -8.06 -6.16 0 -4.03 -2.85 -45.05 -5.57 -81.56 -1.42 -20.75 -2.49 -28.81 -3.56 -28.81 -0.71 0 -7.47 7.94 -14.82 17.55 -7.35 9.60 -20.63 26.91 -29.40 38.41 -8.77 11.62 -16.36 20.98 -16.83 21.10 -0.83 0 -10.43 -17.66 -10.43 -19.20 0 -1.07 25.25 -34.62 29.40 -39.24 1.90 -1.90 2.61 -3.67 1.90 -4.27 -1.19 -1.19 -29.28 -10.43 -43.15 -14.23 -18.61 -5.10 -60.46 -11.97 -72.91 -11.97 -2.25 0 -2.37 0.71 -2.02 16.60 l0.36 16.60 40.90 0 c22.41 0 40.78 0.36 40.78 0.95 0 1.19 -7.82 15.29 -49.43 89.15 -53.35 94.84 -54.77 97.57 -54.18 98.51 0.59 1.07 0.71 1.07 34.26 -12.57 42.20 -17.07 75.87 -29.87 84.17 -32.13 12.92 -3.44 42.91 -3.20 55.60 0.47 13.04 3.79 105.98 38.65 122.22 45.88 3.32 1.42 6.05 2.61 6.16 2.49 0.12 -0.12 1.54 -13.75 3.20 -30.35z m-597.37 25.96 c5.22 -2.02 22.88 -8.77 39.12 -14.94 16.36 -6.16 38.65 -14.70 49.67 -18.85 28.33 -10.79 35.80 -12.57 56.43 -13.16 15.65 -0.47 18.26 -0.24 28.93 2.49 6.40 1.66 29.87 10.31 52.16 19.20 22.17 8.89 41.25 16.48 42.20 16.72 1.54 0.47 1.78 -5.69 1.42 -50.86 l-0.24 -51.33 -42.08 -0.36 c-23.12 -0.12 -42.08 -0.59 -42.08 -0.83 0 -1.54 34.97 -66.74 51.09 -95.08 7.59 -13.63 7.82 -13.16 -4.86 -10.43 -4.27 0.95 -12.21 2.61 -17.78 3.67 -11.38 2.25 -44.81 11.62 -50.38 14.11 -1.90 0.83 -5.57 2.25 -8.06 2.96 -4.03 1.30 -4.39 1.66 -2.85 3.32 3.79 4.50 31.65 40.78 31.65 41.37 0 2.02 -10.08 19.09 -10.91 18.61 -0.83 -0.59 -29.40 -36.99 -52.99 -67.69 -4.15 -5.45 -7.94 -9.84 -8.42 -9.84 -0.47 0 -1.30 5.45 -1.66 12.21 -0.47 6.64 -1.90 25.13 -3.08 41.14 -1.19 16 -2.61 36.16 -3.08 44.93 l-0.83 15.77 -6.05 2.73 c-3.32 1.42 -9.25 3.79 -13.16 5.33 -11.26 4.27 -14.70 5.93 -15.41 7.11 -0.36 0.71 -2.61 1.19 -4.74 1.19 -2.25 0 -9.13 1.90 -15.41 4.27 l-11.26 4.15 -12.21 -12.80 c-6.76 -6.99 -19.92 -20.98 -29.28 -30.82 -9.37 -9.96 -17.78 -18.14 -18.61 -18.14 -2.02 0 -2.02 -0.47 1.42 31.42 1.66 15.06 4.62 42.44 6.52 61.05 3.56 34.14 4.74 45.05 5.22 45.05 0.12 0 4.39 -1.66 9.60 -3.67z m340.12 -131.47 c9.72 -17.31 18.02 -31.89 18.61 -32.60 0.59 -0.59 1.07 -1.78 1.07 -2.61 0 -1.19 -6.88 -1.54 -33.79 -1.54 l-33.79 0 0 -16.24 c-0.12 -9.01 0 -29.04 0 -44.46 0.12 -26.32 -0.12 -28.21 -2.02 -28.21 -1.54 0 -6.05 7.23 -16.24 25.84 -37.34 67.93 -54.06 98.75 -54.06 99.22 0 0.36 16.24 0.59 36.16 0.59 l36.16 0 0 42.91 0 43.03 15.17 -27.27 c8.30 -15.06 23.12 -41.37 32.72 -58.68z m209.24 26.44 l8.42 -9.25 -6.88 -6.88 c-12.33 -12.68 -48.60 -41.14 -52.40 -41.14 -0.95 0 -1.19 2.13 -0.71 7.47 0.36 4.03 1.30 15.41 2.02 25.13 0.71 10.43 1.90 18.26 2.61 19.09 0.83 0.71 8.65 3.79 17.43 6.99 8.77 3.08 16.83 6.16 17.78 6.64 2.85 1.54 2.96 1.54 11.74 -8.06z m-485.57 -3.32 c7.71 -2.85 14.34 -5.45 14.82 -5.81 0.59 -0.71 3.91 -40.07 3.44 -40.66 -0.71 -0.59 -26.44 19.80 -36.99 29.28 l-12.45 11.14 6.16 6.28 c4.74 4.86 6.76 6.16 8.65 5.57 1.30 -0.47 8.65 -3.08 16.36 -5.81z"/>
  <path d="M610.29 718.40 c-2.02 -1.19 -2.13 -5.57 -2.13 -64.73 l0 -63.42 8.06 -3.56 c18.61 -8.42 43.98 -19.20 96.26 -40.90 15.06 -6.28 19.56 -6.52 30.82 -1.78 7.11 3.08 8.06 3.20 6.88 1.30 -0.83 -1.30 -1.19 -2.61 -0.83 -2.96 0.36 -0.36 9.48 3.32 20.15 8.18 19.32 8.77 19.44 8.89 19.80 12.92 0.47 5.33 -7.23 19.80 -10.55 19.80 -1.42 0 -2.25 -0.83 -2.25 -2.13 0 -1.54 -3.08 -3.44 -11.50 -6.99 -6.40 -2.73 -15.89 -6.88 -21.10 -9.13 -5.22 -2.37 -11.02 -4.27 -12.80 -4.27 -3.91 0 -30.11 11.26 -33.43 14.34 -2.25 2.25 -2.25 2.25 3.67 2.25 13.87 0 27.86 4.50 56.55 18.26 l16.48 7.71 -3.91 5.45 c-2.13 2.96 -4.86 6.28 -6.05 7.35 -2.37 2.13 -2.25 2.13 -11.74 -3.67 -1.54 -0.83 -4.50 0.36 -13.04 5.57 -15.65 9.37 -21.46 10.79 -43.15 10.91 -9.72 0 -29.64 -0.47 -44.10 -0.95 l-26.44 -0.95 0 44.22 c0 24.30 -0.47 44.93 -0.95 45.76 -1.30 2.02 -12.09 3.08 -14.70 1.42z"/>
  <path d="M450.96 627.83 c-8.30 -1.90 -14.82 -4.98 -24.42 -11.50 -3.79 -2.61 -7.47 -4.62 -8.06 -4.62 -0.71 0 -3.32 1.30 -5.69 2.96 -2.37 1.66 -4.98 2.96 -5.69 2.96 -1.30 0 -9.37 -8.89 -11.62 -12.80 -0.59 -1.07 4.15 -3.91 16.12 -9.72 22.05 -10.79 39.60 -16.60 53.47 -17.43 5.69 -0.36 9.96 -1.07 9.48 -1.54 -0.47 -0.47 -8.42 -4.27 -17.55 -8.30 -18.49 -8.30 -20.51 -8.42 -31.65 -3.20 -5.45 2.61 -17.19 7.82 -30.23 13.40 l-3.67 1.66 -4.39 -7.94 c-2.37 -4.27 -3.91 -8.18 -3.32 -8.65 1.66 -1.30 31.42 -15.06 41.02 -18.85 5.10 -2.02 11.38 -3.67 13.99 -3.67 3.44 0 16.60 4.98 48.84 18.49 75.63 31.77 69.59 29.04 69.59 32.01 0 2.96 -11.02 34.50 -12.68 36.16 -0.59 0.59 -20.27 1.30 -43.63 1.66 -34.26 0.47 -44.10 0.24 -49.91 -1.07z"/>
  <path d="M776.85 604 c0 -2.61 0.24 -3.56 0.47 -2.02 0.24 1.42 0.24 3.56 0 4.74 -0.36 1.07 -0.59 -0.12 -0.47 -2.73z"/>
 </g>
 <g fill="#b3d6f0">
  <path d="M558.84 1170.19 l-25.96 -17.66 -0.59 -16.48 c-0.47 -12.21 -1.07 -17.19 -2.37 -18.85 -0.95 -1.19 -7.35 -8.89 -14.23 -17.07 -13.16 -15.65 -15.41 -18.97 -15.41 -22.88 0 -2.25 0.24 -2.25 3.79 1.07 2.13 1.90 2.96 2.37 1.78 0.95 -1.78 -2.13 -1.90 -4.03 -0.83 -20.03 0.59 -9.72 0.83 -17.90 0.47 -18.26 -0.36 -0.36 -1.66 0 -2.85 0.83 -2.13 1.30 -2.37 1.07 -2.37 -1.54 0 -1.54 1.07 -4.62 2.37 -6.76 2.02 -3.32 2.25 -5.10 1.66 -11.62 -0.83 -7.59 -0.83 -7.71 1.42 -5.69 2.25 2.02 2.49 1.42 9.72 -27.38 4.15 -16.24 7.71 -32.25 8.18 -35.45 0.59 -5.33 1.30 -6.52 6.76 -11.26 4.03 -3.44 11.50 -13.16 21.81 -28.57 8.65 -12.80 16.72 -23.71 18.02 -24.42 1.19 -0.59 4.15 -1.19 6.40 -1.19 l4.27 0 0 18.38 c0 15.53 -0.24 18.38 -1.78 18.38 -0.95 0 -1.78 -0.83 -1.78 -1.78 0 -7.11 -13.75 8.54 -21.69 24.66 -12.21 24.78 -18.38 52.28 -19.44 85.71 -1.30 41.14 5.45 69.23 22.76 95.31 6.16 9.25 21.81 24.54 26.44 25.73 3.79 0.95 8.54 -1.66 17.90 -9.60 20.63 -17.31 34.14 -44.57 38.05 -76.58 1.78 -14.70 1.42 -42.68 -0.71 -59.51 -4.50 -35.45 -16.72 -75.40 -27.38 -89.74 -5.57 -7.23 -19.92 -11.38 -21.34 -6.05 -0.36 1.30 -1.42 2.37 -2.25 2.37 -1.30 0 -1.66 -2.85 -1.66 -13.63 l0 -13.63 5.69 0 5.69 0 16.36 24.78 c8.89 13.75 18.38 26.79 20.86 29.04 4.27 3.79 10.79 6.64 15.65 6.64 1.42 0 2.25 1.30 2.73 4.50 3.08 19.44 14.34 56.43 16.83 55.48 3.08 -1.19 1.54 4.15 -2.49 8.18 -2.25 2.13 -4.39 5.69 -4.86 7.59 -1.07 4.86 2.37 11.74 7.23 14.94 3.56 2.25 3.67 2.73 4.50 13.04 1.30 19.20 1.07 19.92 -17.19 41.37 -23.71 27.98 -22.41 25.37 -22.41 43.51 l0 15.17 -17.43 11.74 c-9.72 6.52 -21.34 14.58 -25.96 17.78 l-8.54 6.05 -25.84 -17.55z"/>
  <path d="M514.62 1140.44 c-8.06 -5.69 -10.08 -7.59 -10.31 -10.31 -1.30 -15.17 -1.66 -24.30 -0.95 -25.37 0.47 -0.83 2.37 0.24 4.98 2.73 l4.27 3.91 -4.39 -5.22 c-2.37 -2.96 -4.15 -5.45 -3.91 -5.81 0.95 -0.95 7.82 1.19 7.82 2.37 0 0.59 2.73 3.91 5.93 7.23 3.32 3.44 6.40 7.94 7.11 10.31 1.42 4.86 1.66 27.27 0.36 27.15 -0.59 0 -5.45 -3.20 -10.91 -6.99z"/>
  <path d="M643.72 1132.37 l0 -13.99 4.74 -4.62 c2.61 -2.49 4.74 -5.22 4.74 -5.93 0 -0.59 1.07 -1.90 2.37 -2.73 1.30 -0.83 2.37 -2.02 2.37 -2.61 0 -0.71 1.90 -2.85 4.15 -4.86 2.25 -2.02 4.50 -4.98 4.86 -6.52 0.36 -1.54 1.30 -2.85 2.13 -2.96 1.78 -0.12 12.09 -12.33 13.99 -16.60 0.83 -1.90 2.49 -3.44 3.56 -3.44 1.90 0 2.13 1.42 2.13 12.80 0 6.99 -0.59 17.55 -1.30 23.35 -0.83 5.93 -1.42 11.62 -1.42 12.68 -0.12 1.07 -0.36 1.78 -0.71 1.54 -0.24 -0.36 -1.07 0.12 -1.78 1.07 -1.30 1.54 -38.17 26.79 -39.24 26.79 -0.36 0 -0.59 -6.28 -0.59 -13.99z"/>
  <path d="M462.81 1105.35 c-12.33 -8.18 -23.35 -15.77 -24.54 -16.95 -2.96 -2.85 -15.06 -39.60 -15.06 -45.64 0 -2.85 1.42 -7.71 3.44 -11.97 2.96 -6.40 39.24 -57.61 45.52 -64.25 2.96 -3.32 6.05 -3.67 5.10 -0.59 -2.85 9.01 -4.39 19.68 -5.10 32.84 -0.36 8.54 -1.19 16.48 -1.78 17.78 -0.71 1.30 0.12 0.83 1.90 -1.19 2.49 -2.96 2.96 -3.20 3.08 -1.30 0 1.30 -0.59 4.03 -1.30 6.05 -1.78 4.98 -0.47 11.50 3.08 15.89 1.66 1.90 2.96 4.50 2.96 5.93 0 2.02 -0.47 2.37 -3.56 1.78 -1.90 -0.47 -3.56 -0.36 -3.56 0.24 0 0.59 1.54 8.54 3.56 17.66 4.62 21.34 10.55 57.50 9.48 58.09 -0.47 0.36 -10.91 -6.16 -23.24 -14.34z"/>
  <path d="M342.60 964.75 c-4.86 -9.13 -11.85 -22.05 -15.65 -28.69 l-6.88 -11.97 0 -49.20 c0 -54.06 0.59 -59.27 6.88 -71.84 1.90 -3.91 9.72 -15.65 17.43 -26.32 14.94 -20.86 23.12 -36.39 25.61 -48.49 0.95 -4.27 2.13 -7.47 2.96 -7.47 0.83 0 11.14 19.09 23.12 42.44 11.85 23.24 24.66 47.89 28.45 54.77 l6.88 12.57 -1.54 5.33 c-2.96 9.84 -4.27 26.08 -4.27 53.82 l0 27.27 -5.33 8.06 c-2.96 4.39 -5.57 7.94 -5.69 7.94 -0.12 0 -0.47 -5.22 -0.59 -11.50 -0.59 -17.90 1.90 -55.36 4.50 -69.71 1.30 -7.23 2.37 -15.17 2.37 -17.90 0 -5.69 -4.50 -15.17 -9.37 -19.92 -3.32 -3.20 -3.44 -3.20 -7.71 -1.42 -2.37 0.95 -4.27 1.42 -4.27 1.07 0 -1.42 -8.42 7.23 -13.87 14.23 -4.86 6.28 -5.93 10.31 -2.73 10.31 0.59 0 1.19 0.59 1.19 1.30 0 0.95 -2.02 1.19 -6.64 0.71 -7.82 -0.83 -11.62 0.36 -16.72 5.33 -5.57 5.33 -6.99 10.43 -4.39 15.89 1.07 2.37 2.73 4.50 3.67 4.86 2.73 1.07 1.78 9.13 -2.25 17.66 l-3.91 8.18 0 44.81 c0 29.04 -0.47 44.69 -1.19 44.69 -0.59 0 -5.22 -7.59 -10.08 -16.83z"/>
  <path d="M759.90 941.27 l-16 -22.52 -0.71 -34.62 c-0.47 -27.38 -1.07 -36.87 -2.85 -44.81 l-2.13 -10.08 27.50 -52.75 c15.17 -29.04 28.21 -53.47 28.81 -54.18 2.13 -2.61 3.08 -1.78 3.91 3.56 2.02 11.38 7.82 24.66 17.31 38.88 l4.39 6.64 -13.04 18.26 c-28.21 39.36 -31.77 45.64 -32.60 56.19 -0.36 3.91 0.24 19.09 1.19 33.79 2.25 31.77 3.67 78.24 2.61 81.68 -0.36 1.42 -1.07 2.49 -1.54 2.49 -0.47 0 -8.06 -10.20 -16.83 -22.52z"/>
  <path d="M649.41 925.03 c-3.32 -3.67 -25.84 -36.99 -25.84 -38.29 0 -0.47 1.42 -1.19 3.32 -1.54 1.78 -0.36 5.81 -2.37 8.89 -4.27 l5.69 -3.67 -3.79 -5.45 c-2.02 -2.96 -4.39 -5.69 -5.33 -6.05 -2.13 -0.83 -2.13 -2.73 0.12 -2.73 2.25 0 29.04 8.77 34.38 11.38 l4.15 1.90 0 23 0 23 -5.93 2.96 c-7.71 3.91 -11.85 3.79 -15.65 -0.24z"/>
  <path d="M868.96 863.39 c0 -49.79 -0.36 -52.87 -6.64 -66.74 -1.90 -4.27 -10.31 -17.31 -18.73 -29.04 -25.25 -35.45 -24.42 -32.36 -25.13 -86.78 -0.36 -23 -0.12 -41.85 0.36 -41.85 1.54 0 14.70 13.63 13.99 14.46 -1.07 0.95 3.56 19.32 8.30 32.96 2.37 6.88 11.74 27.15 20.75 45.05 21.93 43.86 28.10 61.17 32.72 91.64 2.02 13.04 4.03 61.41 2.61 60.46 -0.59 -0.24 -0.95 0.24 -0.95 1.07 0 1.42 -21.46 21.22 -25.73 23.83 -1.30 0.83 -1.54 -7.35 -1.54 -45.05z"/>
  <path d="M802.81 898 c0.24 -6.40 0.59 -7.71 2.37 -7.71 1.78 0 2.13 1.07 2.13 7.71 0 6.99 -0.24 7.71 -2.49 7.71 -2.25 0 -2.37 -0.59 -2.02 -7.71z"/>
  <path d="M277.17 890.06 c-17.78 -15.06 -28.81 -27.27 -33.31 -36.63 -6.64 -13.87 -6.99 -16.48 -6.52 -49.79 0.47 -27.38 0.71 -30.82 3.20 -38.41 3.56 -10.67 9.72 -23 15.89 -31.30 2.61 -3.67 24.66 -26.67 48.96 -51.09 l44.34 -44.46 0 25.73 c0 24.42 -0.12 25.73 -2.25 26.44 -1.30 0.36 -6.76 5.33 -12.09 11.02 -45.76 48.37 -63.90 84.88 -63.90 128.98 0 23.35 3.91 41.49 12.57 58.92 2.25 4.39 3.56 7.94 2.85 7.94 -0.59 0 -4.98 -3.32 -9.72 -7.35z"/>
  <path d="M776.73 864.81 c-1.54 -3.44 -1.78 -11.74 -0.36 -15.41 0.59 -1.42 1.19 1.19 1.66 7.71 0.47 5.45 0.59 10.08 0.36 10.31 -0.12 0.24 -0.95 -0.95 -1.66 -2.61z"/>
  <path d="M714.61 796.05 l-10.43 -9.96 0 -31.30 0 -31.30 7.71 -3.32 c25.49 -10.79 49.32 -34.73 58.56 -58.68 4.86 -12.45 6.05 -23.35 6.05 -53.94 l0 -26.44 4.86 -8.54 c2.61 -4.74 4.39 -9.01 3.79 -9.48 -0.47 -0.47 -7.82 -3.91 -16.36 -7.71 -8.42 -3.79 -16.24 -7.59 -17.31 -8.54 -1.42 -1.19 -2.13 -4.74 -2.61 -13.75 -2.61 -44.22 -16.95 -68.17 -46.47 -77.41 -14.70 -4.50 -15.06 -4.39 -16.72 7.94 -1.42 11.02 -3.79 21.93 -5.33 25.01 -1.30 2.37 -6.05 4.15 -30.70 11.02 -10.79 2.96 -24.07 7.35 -29.64 9.60 -5.57 2.37 -10.79 4.27 -11.50 4.27 -0.83 0.12 -1.54 1.19 -1.54 2.37 0 1.19 -0.47 2.13 -1.19 2.13 -0.59 0 -1.19 -2.02 -1.19 -4.50 0 -6.16 2.13 -7.94 29.04 -24.54 12.45 -7.71 23.71 -14.70 25.25 -15.65 7.59 -4.74 7.35 -3.44 7.35 -36.63 l0 -30.35 15.77 0.47 c14.23 0.47 16.48 0.83 25.25 4.27 10.79 4.27 21.46 10.91 27.74 17.07 2.25 2.25 9.13 10.55 15.06 18.49 l10.91 14.46 1.78 15.29 c3.44 28.93 13.04 50.50 29.64 66.39 l4.27 4.15 0 62.24 0 62.36 -18.14 34.50 c-9.84 18.85 -25.73 49.20 -35.21 67.22 -9.48 18.02 -17.43 32.84 -17.78 32.84 -0.36 -0.12 -5.22 -4.62 -10.91 -10.08z"/>
  <path d="M237.10 719.83 c0 -0.59 -3.67 -6.16 -8.18 -12.45 l-8.18 -11.26 63.78 -62.95 c35.09 -34.62 64.13 -62.95 64.49 -62.95 0.36 0 0.71 8.65 0.71 19.32 l0 19.20 -39.71 39.71 c-21.81 21.81 -46.47 46.95 -54.65 55.72 -13.99 14.82 -18.26 18.49 -18.26 15.65z"/>
  <path d="M924.44 716.15 c-0.95 -1.30 -24.78 -25.84 -53.11 -54.65 -28.33 -28.81 -51.92 -53.47 -52.40 -54.89 -0.36 -1.42 -0.71 -9.72 -0.83 -18.38 -0.12 -13.28 0.12 -15.89 1.78 -16.48 2.25 -0.83 11.62 7.94 10.08 9.48 -2.25 2.25 8.65 25.37 17.78 37.82 10.20 13.63 36.87 37.11 76.46 67.10 12.80 9.72 12.92 9.84 11.14 15.29 -1.42 4.39 -8.06 16.95 -8.89 16.95 -0.24 0 -1.19 -1.07 -2.02 -2.25z"/>
  <path d="M195.84 672.64 c0.36 -19.80 0.36 -20.15 4.39 -29.40 13.63 -31.53 46.47 -63.07 103.02 -99.11 43.51 -27.74 62.47 -41.49 72.43 -52.87 2.49 -2.85 5.10 -5.22 5.93 -5.22 3.56 0 -4.62 21.93 -12.09 32.25 -2.96 4.15 -11.62 13.63 -19.44 21.10 -7.71 7.47 -45.64 45.05 -84.29 83.46 l-70.30 69.82 0.36 -20.03z"/>
  <path d="M917.56 523.15 c-22.05 -20.39 -31.42 -25.49 -69.35 -37.70 -45.52 -14.58 -60.58 -24.18 -81.68 -52.28 -14.34 -18.97 -25.01 -28.69 -41.37 -37.22 -4.39 -2.25 -7.94 -4.50 -7.94 -4.86 0 -1.42 14.11 -2.02 23.35 -0.95 5.10 0.59 13.75 2.37 19.32 4.15 9.84 3.08 10.20 3.20 12.68 8.65 4.15 8.54 14.94 21.34 25.01 29.40 10.55 8.54 34.14 21.10 56.19 29.87 33.08 13.16 65.79 28.93 71.84 34.50 1.42 1.42 2.73 5.10 3.56 10.79 1.42 9.84 3.08 28.33 2.49 28.33 -0.24 -0.12 -6.64 -5.81 -14.11 -12.68z"/>
  <path d="M398.32 510.83 c3.91 -9.96 6.99 -24.18 7.82 -36.99 l0.83 -11.74 9.72 -12.57 c8.89 -11.74 9.96 -12.68 13.99 -13.04 2.85 -0.24 6.76 0.71 11.02 2.61 3.67 1.66 7.94 3.08 9.48 3.08 1.78 0 2.85 0.71 2.85 1.78 0 0.95 -0.59 1.78 -1.30 1.78 -2.25 0 -20.63 17.31 -26.91 25.25 -3.20 4.03 -9.13 13.40 -13.16 20.86 -11.62 21.22 -19.20 31.30 -14.34 18.97z"/>
  <path d="M565 506.91 c0.95 -2.49 -29.28 -32.13 -44.57 -43.51 -15.06 -11.38 -28.93 -19.68 -39.48 -23.71 -5.69 -2.13 -7.59 -2.37 -10.91 -1.42 -3.56 1.19 -4.62 0.95 -9.13 -2.02 -7.59 -4.86 -10.31 -8.42 -11.14 -14.46 -0.83 -5.57 -0.71 -5.57 3.79 -7.47 16.83 -7.23 34.85 -10.31 45.64 -7.94 3.56 0.83 19.20 6.76 34.85 13.28 l28.45 11.62 0.59 9.37 0.59 9.25 4.03 -6.88 c3.79 -6.64 4.15 -6.99 7.71 -6.16 11.02 2.37 10.67 2.49 47.30 -12.33 19.44 -7.94 35.56 -14.34 35.92 -14.34 0.24 0 0.47 12.92 0.47 28.81 l-0.12 28.69 -28.33 18.14 c-30.47 19.32 -31.89 19.92 -40.78 16.24 -5.33 -2.25 -10.79 -1.07 -16.72 3.44 -4.27 3.32 -9.25 4.15 -8.18 1.42z"/>
  <path d="M327.31 311.31 c-4.62 -4.62 -8.42 -9.01 -8.42 -9.72 0 -4.27 56.43 -49.91 58.92 -47.54 0.36 0.47 0 12.09 -0.95 25.84 -1.30 19.09 -2.13 25.13 -3.44 25.96 -0.95 0.59 -6.52 2.73 -12.45 4.86 -5.81 2.02 -13.99 4.86 -17.90 6.40 l-7.23 2.73 -8.54 -8.54z"/>
 </g>
 <g fill="#07cbeb">
  <path d="M529.08 1150.16 l-6.28 -4.15 0 -9.01 c0 -4.98 -0.47 -10.79 -1.07 -12.92 -0.95 -2.96 -9.13 -14.11 -14.34 -19.20 -0.36 -0.36 -5.93 -7.23 -12.45 -15.29 l-11.85 -14.70 -0.36 -14.34 -0.47 -14.34 -3.67 -2.37 c-6.16 -4.03 -8.42 -8.18 -8.89 -16.60 -0.47 -6.88 -0.24 -8.18 2.61 -11.85 4.39 -5.69 8.77 -7.71 16.95 -7.71 11.97 0 19.32 7.47 19.32 19.56 0 6.52 -2.13 11.02 -7.23 15.41 l-3.79 3.20 0 12.57 0.12 12.68 16.95 20.03 c9.37 10.91 18.02 21.46 19.20 23.24 1.78 2.85 2.02 5.69 1.78 21.58 l-0.36 18.38 -6.16 -4.15z"/>
  <path d="M633.05 1135.93 c0 -20.98 -1.66 -17.66 22.41 -46.12 17.66 -20.75 17.90 -21.10 16.95 -36.51 -0.47 -7.82 -0.71 -8.42 -4.27 -10.67 -10.55 -6.76 -10.43 -24.78 0.36 -32.13 3.32 -2.25 5.81 -2.85 11.14 -2.85 10.79 0 17.19 4.62 19.80 14.34 2.02 7.35 -0.24 13.63 -7.35 20.51 l-6.05 5.81 0.83 6.64 c0.47 3.67 1.07 8.54 1.42 10.91 0.47 2.85 0 5.81 -1.30 8.54 -2.37 5.10 -13.63 18.14 -15.17 17.66 -0.47 -0.12 -0.71 0.12 -0.36 0.71 0.59 1.07 -15.41 21.10 -21.10 26.20 -2.96 2.73 -3.08 3.44 -3.08 14.34 l0 11.50 -6.28 4.27 c-3.56 2.49 -6.76 4.39 -7.11 4.39 -0.47 0 -0.83 -7.94 -0.83 -17.55z"/>
  <path d="M574.25 1064.68 c-10.43 -4.74 -14.70 -18.61 -9.01 -29.40 1.66 -2.96 8.18 -8.65 10.08 -8.65 0.95 0 1.42 -2.49 1.42 -7.35 0 -4.15 0.12 -35.33 0.36 -69.35 l0.24 -62 7.11 0 7.11 0 0 68.64 0 68.52 4.86 3.20 c5.33 3.56 9.25 10.79 9.37 17.07 0 4.39 -2.73 11.50 -5.69 14.82 -5.93 6.52 -17.07 8.54 -25.84 4.50z"/>
  <path d="M803.28 1002.21 c-0.47 -1.90 -0.71 -28.21 -0.59 -58.68 l0.24 -55.24 -3.20 -5.57 c-2.25 -3.79 -3.91 -5.45 -5.69 -5.45 -5.22 0 -12.80 -4.86 -15.89 -10.20 -9.96 -16.95 8.77 -37.46 27.15 -29.64 11.97 5.10 16.12 18.61 9.01 29.76 -3.67 5.81 -3.67 5.81 -1.66 9.96 6.52 13.51 6.52 13.75 5.81 59.87 l-0.83 42.80 -5.69 11.26 c-7.71 15.06 -7.71 15.17 -8.65 11.14z"/>
  <path d="M356.59 990.71 l-6.64 -12.09 0.12 -45.05 0.24 -45.05 4.03 -8.42 3.91 -8.54 -2.49 -2.49 c-7.47 -7.47 -6.28 -20.39 2.61 -28.21 6.76 -5.93 18.85 -6.76 25.61 -1.78 15.29 11.26 10.55 33.43 -8.30 38.29 -5.57 1.42 -6.40 2.13 -8.42 6.64 -2.02 4.62 -2.25 8.89 -2.13 62 0 31.30 -0.36 56.90 -0.95 56.90 -0.47 0 -3.79 -5.57 -7.59 -12.21z"/>
  <path d="M574.37 537.50 c-5.33 -2.73 -7.82 -5.33 -10.20 -10.55 -8.18 -17.90 10.08 -35.80 29.04 -28.57 l5.33 2.02 28.45 -18.14 28.45 -18.14 0.12 -26.32 0 -26.44 4.39 -1.78 c2.37 -1.07 5.57 -2.13 7.11 -2.49 l2.73 -0.71 0 32.13 c0 35.21 0.24 33.67 -7.35 38.41 -1.54 0.95 -12.80 7.94 -25.25 15.65 -24.78 15.29 -30.23 19.68 -30.23 24.18 0 8.42 -5.10 17.43 -11.97 20.86 -4.39 2.37 -16.12 2.25 -20.63 -0.12z"/>
 </g>
 <g fill="#cce5f7">
  <path d="M667.07 1098.47 c17.78 -21.69 19.09 -23.71 20.51 -30.59 l1.07 -5.10 -0.36 5.57 c-0.36 4.03 -1.42 6.99 -4.39 10.91 -6.16 8.18 -29.40 36.04 -30.82 36.99 -0.71 0.36 5.57 -7.59 13.99 -17.78z"/>
  <path d="M497.07 1058.64 c0 -5.57 0.24 -7.82 0.47 -4.98 0.24 2.73 0.24 7.23 0 10.08 -0.24 2.73 -0.47 0.47 -0.47 -5.10z"/>
  <path d="M576.50 1017.74 c0 -3.91 0.24 -5.33 0.47 -3.20 0.24 2.13 0.24 5.33 0 7.11 -0.24 1.78 -0.47 0 -0.47 -3.91z"/>
  <path d="M803.17 951.94 c0 -27.74 0.12 -39 0.24 -25.13 0.24 13.75 0.24 36.51 0 50.38 -0.12 13.75 -0.24 2.49 -0.24 -25.25z"/>
  <path d="M503.83 925.63 l-5.33 -2.73 0.12 -21.34 c0 -12.45 0.59 -22.64 1.30 -24.42 1.90 -4.27 14.82 -10.31 27.98 -12.92 20.03 -3.91 99.22 -4.03 108.71 -0.24 1.66 0.71 2.25 1.30 1.19 1.42 -0.95 0.12 -4.39 0.47 -7.71 0.95 -8.30 0.95 -87.01 0.83 -91.28 -0.24 -3.20 -0.71 -3.91 -0.24 -7.71 4.74 l-4.03 5.57 4.03 3.44 c2.25 1.90 6.40 4.03 9.25 4.86 3.44 0.83 4.86 1.90 4.39 2.96 -0.71 1.90 -19.80 29.87 -24.66 36.16 -4.15 5.33 -8.30 5.81 -16.24 1.78z"/>
  <path d="M818.46 907.49 c0 -8.42 0.12 -11.74 0.36 -7.35 0.24 4.39 0.24 11.38 0 15.41 -0.24 4.03 -0.36 0.47 -0.36 -8.06z"/>
  <path d="M285.35 896.82 c-3.08 -2.96 -4.27 -4.98 -2.13 -3.67 0.59 0.47 1.30 0.12 1.54 -0.59 0.24 -0.71 1.30 0.71 2.49 2.96 1.07 2.37 1.90 4.27 1.66 4.27 -0.12 0 -1.78 -1.30 -3.56 -2.96z"/>
  <path d="M395.95 815.26 c5.57 -5.93 9.01 -7.71 11.02 -5.69 0.83 0.83 0.24 1.66 -2.25 2.61 -1.90 0.71 -4.15 1.42 -4.86 1.54 -0.83 0.12 -3.32 1.78 -5.33 3.67 -2.13 2.02 -1.54 0.95 1.42 -2.13z"/>
  <path d="M438.04 442.66 c-4.15 -2.13 -7.23 -2.85 -10.43 -2.37 l-4.39 0.47 4.62 -5.81 c6.40 -8.06 21.22 -20.03 24.90 -20.03 0.59 0 1.07 1.90 1.07 4.27 0 5.10 4.03 9.84 12.57 14.70 5.81 3.32 5.81 3.44 2.96 4.50 -1.54 0.71 -5.93 2.61 -9.84 4.27 -8.54 3.79 -13.75 3.79 -21.46 0z"/>
  <path d="M562.51 353.87 c0 -25.37 0.12 -35.68 0.24 -22.76 0.24 12.92 0.24 33.79 0 46.23 -0.12 12.57 -0.24 2.02 -0.24 -23.47z"/>
  <path d="M605.07 211.02 c0 -8.77 0.12 -12.45 0.36 -7.94 0.24 4.39 0.24 11.50 0 16 -0.24 4.39 -0.36 0.71 -0.36 -8.06z"/>
 </g>
</svg>